<svg xmlns="http://www.w3.org/2000/svg" xmlns:xlink="http://www.w3.org/1999/xlink" width="675.706" height="650.07" viewBox="0 0 675.706 650.07"><defs><clipPath id="a"><rect width="675.706" height="622.45" fill="none"/></clipPath><clipPath id="b"><rect width="127.062" height="61.709" fill="none" stroke="#707070" stroke-width="5"/></clipPath><clipPath id="c"><rect width="21.069" height="21.069" fill="none" stroke="#707070" stroke-width="5"/></clipPath></defs><g transform="translate(-143.27 -2289.551)"><g transform="translate(143.27 2289.551)"><g transform="translate(0 0)" clip-path="url(#a)"><path d="M497.254,0l-293.4,25.4a57.153,57.153,0,0,0-49.5,28.578L7.659,282.647a57.146,57.146,0,0,0,0,57.156l146.7,228.667a57.153,57.153,0,0,0,49.5,28.578l293.4,25.4a57.153,57.153,0,0,0,49.5-28.578L668.047,339.8a57.146,57.146,0,0,0,0-57.156L546.75,28.578A57.153,57.153,0,0,0,497.254,0" transform="translate(0 0)" fill="#00b2e3"/></g></g><g transform="translate(195.82 2360.574) rotate(-22)"><g transform="translate(0 0)" clip-path="url(#b)"><path d="M25.763,57.563A25.763,25.763,0,1,0,0,31.8,25.762,25.762,0,0,0,25.763,57.563" transform="translate(0 4.146)" fill="#faa61a"/><circle cx="14.33" cy="14.33" r="14.33" transform="translate(13.907 20.344)" fill="none" stroke="#191919" stroke-width="5"/><path d="M73.035,33.837a4.282,4.282,0,1,0-4.281-4.281A4.28,4.28,0,0,0,73.035,33.837Z" transform="translate(47.216 17.356)" fill="none" stroke="#191919" stroke-width="5"/><path d="M45.982,23.844A11.172,11.172,0,1,0,34.811,12.673,11.171,11.171,0,0,0,45.982,23.844Z" transform="translate(23.906 1.03)" fill="none" stroke="#191919" stroke-width="5"/><line x1="16.857" y2="8.27" transform="translate(42.195 19.428)" fill="none" stroke="#191919" stroke-width="5"/><line x2="35.624" y2="25.444" transform="translate(80.681 17.52)" fill="none" stroke="#191919" stroke-width="5"/></g></g><g transform="translate(727.182 2939.621) rotate(180)"><g transform="translate(0)"><path d="M46.85,0A46.85,46.85,0,1,1,0,46.85,46.85,46.85,0,0,1,46.85,0" transform="translate(16.36 0)" fill="#1b76bc"/><circle cx="20.079" cy="20.079" r="20.079" transform="translate(0 8.924)" fill="none" stroke="#1a1a1a" stroke-miterlimit="10" stroke-width="1"/><circle cx="17.848" cy="17.848" r="17.848" transform="translate(2.231 11.155)" fill="none" stroke="#1a1a1a" stroke-width="3"/><path d="M1.647,2.966a7.736,7.736,0,1,0,10.86-1.319A7.736,7.736,0,0,0,1.647,2.966Z" transform="translate(106.665 72.463)" fill="none" stroke="#1a1a1a" stroke-width="5"/><path d="M1.647,2.966a7.736,7.736,0,1,0,10.86-1.319A7.736,7.736,0,0,0,1.647,2.966Z" transform="translate(71.608 26.58)" fill="none" stroke="#1a1a1a" stroke-width="5"/><line x2="25.824" y2="31.352" transform="translate(84.406 41.183)" fill="none" stroke="#1a1a1a" stroke-width="5"/></g></g><g transform="translate(206.826 2524.086) rotate(-45)"><g transform="translate(0 0)" clip-path="url(#c)"><line x1="15.1" y2="15.1" transform="translate(2.985 2.985)" fill="none" stroke="#1a1a1a" stroke-linecap="round" stroke-linejoin="round" stroke-width="5"/><line x2="15.1" y2="15.1" transform="translate(2.985 2.985)" fill="none" stroke="#1a1a1a" stroke-linecap="round" stroke-linejoin="round" stroke-width="5"/></g></g></g></svg>